<svg width="817" height="817" viewBox="0 0 817 817" xmlns="http://www.w3.org/2000/svg">
  <path fill="#000000" d="M 89.58,1.10 C 54.93,6.19 24.28,29.30 9.37,61.57 C 7.42,65.80 4.62,73.59 3.16,78.88 L 0.50,88.50 L 0.50,408.50 L 0.50,728.50 L 3.24,738.43 C 13.49,775.60 41.47,803.50 78.88,813.84 L 88.50,816.50 L 408.50,816.50 L 728.50,816.50 L 738.12,813.84 C 775.53,803.50 803.51,775.60 813.76,738.43 L 816.50,728.50 L 816.50,408.50 L 816.50,88.50 L 813.76,78.57 C 803.51,41.40 775.53,13.50 738.12,3.16 L 728.50,0.50 L 412.00,0.37 C 237.22,0.29 92.85,0.62 89.58,1.10 Z"/>
  <path fill="#ffffff" d="M 203.00,206.42 C 231.18,210.31 261.57,217.36 290.50,226.73 C 307.42,232.20 331.80,241.41 333.28,242.88 C 333.70,243.30 314.18,246.44 289.89,249.86 C 265.60,253.27 245.63,255.94 245.51,255.78 C 245.39,255.63 245.93,249.71 246.70,242.64 C 247.47,235.56 247.92,229.58 247.68,229.35 C 245.70,227.36 189.86,224.79 176.41,226.06 C 147.70,228.77 128.78,239.42 120.23,257.66 C 117.71,263.05 117.50,264.47 117.50,276.00 C 117.50,289.94 119.61,298.27 126.76,312.50 C 144.83,348.50 207.39,407.99 300.24,477.47 C 310.50,485.15 318.71,491.62 318.48,491.85 C 317.37,492.96 265.14,457.61 237.17,436.82 C 171.65,388.12 129.86,348.61 101.16,308.26 C 62.80,254.32 66.40,219.66 111.50,208.50 C 130.33,203.85 176.68,202.79 203.00,206.42 Z M 550.01,265.59 C 572.21,294.97 587.81,329.22 594.99,364.36 C 596.09,369.78 597.00,374.83 597.00,375.58 C 597.00,376.70 571.30,359.43 567.31,355.63 C 566.66,355.01 564.96,345.95 563.52,335.50 C 562.09,325.05 559.78,312.23 558.38,307.00 C 553.48,288.73 542.65,264.06 532.94,249.02 C 530.77,245.67 529.02,242.61 529.05,242.22 C 529.14,240.88 543.11,256.46 550.01,265.59 Z M 514.11,335.49 C 574.83,374.62 629.89,415.46 664.87,447.32 C 719.80,497.37 750.48,551.96 740.52,581.94 C 733.63,602.67 703.51,613.02 650.08,612.99 C 612.03,612.97 566.91,604.37 523.75,588.91 C 508.20,583.34 508.39,583.56 517.05,580.98 C 521.15,579.76 531.69,576.60 540.48,573.95 C 549.27,571.29 556.62,569.28 556.81,569.48 C 557.01,569.67 556.42,573.51 555.50,578.00 C 554.58,582.49 553.98,586.31 554.17,586.49 C 555.78,588.04 595.42,591.26 618.56,591.72 C 663.43,592.61 681.93,588.92 694.24,576.61 C 711.40,559.44 706.97,530.93 681.15,492.37 C 651.16,447.57 594.98,395.90 513.05,337.77 C 489.76,321.24 488.27,320.13 489.29,320.06 C 489.72,320.03 500.89,326.97 514.11,335.49 Z M 584.70,393.48 L 599.89,406.12 L 599.41,414.81 C 597.70,445.45 592.48,467.47 581.36,490.97 C 547.92,561.62 474.62,599.15 393.00,587.40 C 328.17,578.06 266.19,537.12 227.89,478.33 C 221.94,469.20 223.56,469.63 231.08,479.19 C 260.53,516.64 304.02,543.45 351.00,553.13 C 361.23,555.24 365.09,555.50 386.00,555.46 C 412.30,555.42 420.50,554.22 441.00,547.39 C 509.68,524.50 557.78,462.04 565.48,385.76 C 566.31,377.54 564.79,376.93 584.70,393.48 Z"/>

</svg>
