<?xml version="1.0" encoding="UTF-8"?>
<!DOCTYPE svg PUBLIC "-//W3C//DTD SVG 1.1//EN" "http://www.w3.org/Graphics/SVG/1.1/DTD/svg11.dtd">
<!-- Creator: CorelDRAW -->
<svg xmlns="http://www.w3.org/2000/svg" xml:space="preserve" width="176.632mm" height="157.878mm" version="1.1" style="shape-rendering:geometricPrecision; text-rendering:geometricPrecision; image-rendering:optimizeQuality; fill-rule:evenodd; clip-rule:evenodd"
viewBox="0 0 1625.41 1452.84"
 xmlns:xlink="http://www.w3.org/1999/xlink"
 xmlns:xodm="http://www.corel.com/coreldraw/odm/2003">
 <defs>
    <clipPath id="id0">
     <rect x="1013.09" y="1209.39" width="47.92" height="211.02"/>
    </clipPath>
     <clipPath id="id1">
      <rect x="1013.09" y="1209.39" width="47.92" height="211.02"/>
     </clipPath>
    <clipPath id="id2">
     <path d="M923.5 1357.08c-0.36,0.01 -0.72,0.01 -1.08,0.01l66.84 62.47 0 0 -66.74 0 -109.03 -107.43 100.67 0c0,0 26.6,1.38 26.6,-31.42 0,-32.79 -40.59,-22.7 -49.07,-23.85 -8.48,-1.15 -83.47,0 -83.47,0l0 162.19 -47.79 0 0 -202.85 173.5 0c0,0 43.41,4.59 49.84,38.58 6.43,33.99 2.53,58.56 -11.71,76.02 -14.24,17.45 -36.98,25.26 -54.66,22.28l6.11 4z"/>
    </clipPath>
    <clipPath id="id3">
     <path d="M663.78 1257.85l-0.52 0 0 162.35 -49.81 0 0 -164.37 -96.75 0 21.7 -44.42 21.91 0 190.84 0 -26.43 44.32 -61.91 0c0,0 0.37,0.83 0.97,2.11z"/>
    </clipPath>
    <clipPath id="id4">
     <path d="M1620.54 1452.84l1.28 -6.17c1.54,-0.2 3.27,-0.49 3.6,-0.78l0 6.95 -4.88 0zm4.88 -7.14c-0.23,-0.19 -1.18,-0.37 -3.29,-0.53l3.29 -15.92 0 16.45zm0 -37.26l-10.37 11.52 -59.41 0 -14.66 -30.08 -107.26 0.4 20.83 -38.57 66.78 -0.09 -10.95 -19.63 -29.11 -55.58 -80.7 143.64 -0.25 0 -54.34 0 119.36 -208.04 31.61 0 7.33 0.33c0,0 3.51,-4.91 3.51,-7.01 0,-2.1 -15.43,-12.27 -22.62,-14.2 -7.19,-1.93 -28.93,5.96 -36.82,9.47 -7.89,3.51 -10.52,32.61 -10.52,32.61 0,0 -24.72,22.97 -28.23,25.6 -3.51,2.63 -15.43,37 -17.18,38.4 -1.75,1.4 -21.74,25.95 -26.83,31.56 -3.15,3.47 -18.52,31.06 -29.45,52.62l-7.3 -1.16c0,0 -8.87,15.93 -18.94,18.49l35.93 41.04 -58.78 0 -89.44 -103.42 55.92 0 25.1 28.11c0,0 10.07,-2.86 10.22,-23.75 0.15,-20.89 0,-57.87 0,-57.87 0,0 1.05,-26.61 -36.53,-26.61 -37.58,0 -88.39,0 -88.39,0 0,0 -29.31,-1.2 -29.31,26.61 0,27.81 0,63.44 0,63.44 0,0 -3.76,31.42 29.91,31.42 33.67,0 59.68,0 59.68,0l35.43 40.84 -117.01 0c0,0 -40.94,-7.72 -52.12,-49.46 0,0 -2.78,-3.51 -2.78,-33.62 0,-30.11 -4.55,-81.23 25.37,-106.04 29.92,-24.81 66.65,-15.81 93.89,-17.03 27.24,-1.22 75.95,0 75.95,0 0,0 21.89,5.86 29.8,15.61 7.91,9.75 19.86,19.68 22.26,40.28 2.39,20.6 22.07,-7.73 23.91,-10.67 1.84,-2.94 0.37,-23.91 -1.84,-29.06 -2.21,-5.15 -78.17,-46.9 -78.17,-46.9l-66.58 -3.86 -54.81 1.84c0,0 -56.79,16.82 -73.51,24.43 0.02,-1.87 -0.02,-3.1 -0.12,-3.54 -1.11,-4.81 -11.84,-9.62 -11.84,-9.62l-8.27 13.93c-1.8,-0.86 -3.95,-1.81 -5.73,-2.57l-9.03 -21.39c0,0 -29.37,-5.32 -37.49,-5.32 -8.11,0 -13.71,22.38 -14.55,24.62 -0.13,0.34 -0.12,5.24 -0.02,13.3 -2.29,-16.37 -5.4,-37.75 -11.31,-37.44 -8.96,0.46 -94.62,11.71 -101.97,10.79 -7.35,-0.92 -76.71,-6.66 -76.71,-6.66 0,0 -27.79,20.67 -30.32,22.51 -2.53,1.84 -15.62,-5.28 -15.62,-5.28l-0.56 18.83 0 -3.27 -3.19 -7.28c0.38,-2.67 0.68,-4.61 0.68,-4.61 0,0 -142.29,-24.04 -144.76,-23.73 -2.47,0.31 -81.89,16.07 -81.89,16.07l-1.43 5.93 -1.36 -0.49 -1.83 10.96 -28 47.27 -134.91 0 0 36.11 142.42 0 -24.58 46.9 -119.93 0 0 35.15 166.89 0 -25.97 44.98 -190.82 0 0 -209.45 -24.34 0 0 210.72 -54.61 0 2.47 -128.67 -82.38 103.06 -83.93 -103.67 4.03 6.67 0 122.71 -61.77 0 10.2 31.29 -21.41 0 0 -1452.84 1625.41 0 0 1408.43z"/>
    </clipPath>
 </defs>
 <g id="Layer_x0020_1">
  <metadata id="CorelCorpID_0Corel-Layer"/>
  <g id="_2025114724496">
   <g style="clip-path:url(#id0)">
    <image style="clip-path:url(#id1)" x="-86.73" y="-22.94" width="1762.47" height="1762.47" xlink:href="orbit-logo_Images\orbit-logo_ImgID1.png"/>
   </g>
   <g style="clip-path:url(#id2)">
    <image x="-86.73" y="-22.94" width="1762.47" height="1762.47" xlink:href="orbit-logo_Images\orbit-logo_ImgID2.png"/>
   </g>
   <g style="clip-path:url(#id3)">
    <image x="-86.73" y="-22.94" width="1762.47" height="1762.47" xlink:href="orbit-logo_Images\orbit-logo_ImgID3.png"/>
   </g>
   <g style="clip-path:url(#id4)">
    <image x="-0" y="-0" width="1625.41" height="1452.84" xlink:href="orbit-logo_Images\orbit-logo_ImgID4.png"/>
   </g>
  </g>
 </g>
</svg>
