<?xml version="1.0" encoding="UTF-8"?>
<!DOCTYPE svg PUBLIC "-//W3C//DTD SVG 1.1//EN" "http://www.w3.org/Graphics/SVG/1.1/DTD/svg11.dtd">
<!-- Creator: CorelDRAW -->
<svg xmlns="http://www.w3.org/2000/svg" xml:space="preserve" width="139.653mm" height="129.14mm" version="1.1" style="shape-rendering:geometricPrecision; text-rendering:geometricPrecision; image-rendering:optimizeQuality; fill-rule:evenodd; clip-rule:evenodd"
viewBox="0 0 780.39 721.64"
 xmlns:xlink="http://www.w3.org/1999/xlink"
 xmlns:xodm="http://www.corel.com/coreldraw/odm/2003">
 <defs>
    <clipPath id="id0">
     <path d="M780.39 0l0 721.64 -94.35 0c-4.43,-2.47 -7.38,-4.1 -7.38,-4.1l-40.43 -2.35 -33.28 1.12c0,0 -7.97,2.36 -17.37,5.32l-46.58 0 -1.93 -4.57c0,0 -17.84,-3.23 -22.76,-3.23 -2.65,0 -4.86,3.95 -6.42,7.8l-5.05 0c-1.09,-4.43 -2.46,-7.6 -4.24,-7.51 -5.44,0.28 -57.46,7.11 -61.92,6.55 -4.46,-0.56 -46.58,-4.04 -46.58,-4.04l-6.73 5 -68.91 0c-20.94,-3.48 -41.31,-6.81 -42.03,-6.72 -0.94,0.12 -20.14,3.9 -34.4,6.72l-240.01 0 0 -721.64 780.39 0z"/>
    </clipPath>
 </defs>
 <g id="Layer_x0020_1">
  <metadata id="CorelCorpID_0Corel-Layer"/>
  <g id="_2025114011968">
   <g style="clip-path:url(#id0)">
    <image x="-0" y="0" width="780.39" height="721.64" xlink:href="orbit-icon_Images\orbit-icon_ImgID1.png"/>
   </g>
  </g>
 </g>
</svg>
